<svg xmlns="http://www.w3.org/2000/svg" viewBox="165 48 350 395">

<defs>
  <clipPath id="moonClip">
    <circle cx="340" cy="220" r="120"/>
  </clipPath>
  <linearGradient id="moonGrad" x1="0" y1="0" x2="1" y2="1">
    <stop offset="0%" stop-color="#0ea5e9"/>
    <stop offset="100%" stop-color="#6366f1"/>
  </linearGradient>
</defs>

<circle cx="340" cy="220" r="140" fill="none" stroke="#0ea5e9" stroke-width="0.3" opacity="0.3"/>
<circle cx="340" cy="220" r="155" fill="none" stroke="#6366f1" stroke-width="0.3" opacity="0.2"/>
<circle cx="340" cy="220" r="170" fill="none" stroke="#6366f1" stroke-width="0.3" opacity="0.1"/>

<circle cx="340" cy="220" r="120" fill="url(#moonGrad)" opacity="0.9"/>
<circle cx="380" cy="220" r="95" fill="#0c0e13" opacity="0.85"/>

<g clip-path="url(#moonClip)" opacity="0.25">
  <circle cx="290" cy="180" r="12" fill="#e0f2fe" opacity="0.3"/>
  <circle cx="270" cy="250" r="8" fill="#e0f2fe" opacity="0.2"/>
  <circle cx="310" cy="290" r="6" fill="#e0f2fe" opacity="0.25"/>
  <circle cx="260" cy="210" r="4" fill="#e0f2fe" opacity="0.15"/>
  <circle cx="300" cy="230" r="3" fill="#e0f2fe" opacity="0.2"/>
  <circle cx="280" cy="170" r="5" fill="#e0f2fe" opacity="0.15"/>
  <circle cx="250" cy="260" r="3" fill="#e0f2fe" opacity="0.2"/>
</g>

<g transform="translate(340 220)" opacity="0.9">
  <rect x="-45" y="-8" width="3" height="16" rx="1.5" fill="#e0f2fe" opacity="0.6"/>
  <rect x="-38" y="-18" width="3" height="36" rx="1.5" fill="#e0f2fe" opacity="0.7"/>
  <rect x="-31" y="-28" width="3" height="56" rx="1.5" fill="#e0f2fe" opacity="0.8"/>
  <rect x="-24" y="-38" width="3" height="76" rx="1.5" fill="#e0f2fe" opacity="0.9"/>
  <rect x="-17" y="-22" width="3" height="44" rx="1.5" fill="#e0f2fe" opacity="0.85"/>
  <rect x="-10" y="-32" width="3" height="64" rx="1.5" fill="#e0f2fe"/>
  <rect x="-3" y="-12" width="3" height="24" rx="1.5" fill="#e0f2fe" opacity="0.7"/>
  <rect x="4" y="-26" width="3" height="52" rx="1.5" fill="#e0f2fe" opacity="0.85"/>
  <rect x="11" y="-40" width="3" height="80" rx="1.5" fill="#e0f2fe" opacity="0.95"/>
  <rect x="18" y="-20" width="3" height="40" rx="1.5" fill="#e0f2fe" opacity="0.75"/>
  <rect x="25" y="-30" width="3" height="60" rx="1.5" fill="#e0f2fe" opacity="0.8"/>
  <rect x="32" y="-14" width="3" height="28" rx="1.5" fill="#e0f2fe" opacity="0.65"/>
  <rect x="39" y="-6" width="3" height="12" rx="1.5" fill="#e0f2fe" opacity="0.5"/>
</g>

<g transform="translate(340 220)">
  <circle r="4" fill="#38bdf8" opacity="0.8">
    <animateMotion dur="20s" repeatCount="indefinite" path="M0,-135 A135,135 0 0,1 0,135 A135,135 0 0,1 0,-135 Z"/>
  </circle>
  <circle r="2.5" fill="#818cf8" opacity="0.6">
    <animateMotion dur="30s" repeatCount="indefinite" path="M0,-150 A150,150 0 0,1 0,150 A150,150 0 0,1 0,-150 Z"/>
  </circle>
  <circle r="2" fill="#a78bfa" opacity="0.4">
    <animateMotion dur="40s" repeatCount="indefinite" path="M0,-165 A165,165 0 0,1 0,165 A165,165 0 0,1 0,-165 Z"/>
  </circle>
</g>

<text x="340" y="405" text-anchor="middle" font-family="'Helvetica Neue', Helvetica, Arial, sans-serif" font-size="42" font-weight="300" letter-spacing="14" fill="#0c0e13">CALLISTO</text>
<text x="340" y="435" text-anchor="middle" font-family="'Helvetica Neue', Helvetica, Arial, sans-serif" font-size="11" font-weight="400" letter-spacing="5" fill="#64748b">TELEPHONY INTELLIGENCE</text>

</svg>
